<svg width="340" height="80" viewBox="0 0 340 80" fill="none" xmlns="http://www.w3.org/2000/svg">
<path d="M39.3385 36.8669C39.3385 38.7047 38.9953 40.2878 38.3089 41.6164C37.6446 42.9449 36.7479 44.0742 35.6186 45.0042C34.4893 45.9341 33.183 46.698 31.6994 47.2959C30.238 47.8716 28.7102 48.3255 27.116 48.6576C25.5217 48.9898 23.9164 49.2112 22.3 49.3219C20.7058 49.4326 19.2112 49.488 17.8162 49.488C16.4434 49.488 15.0152 49.4326 13.5317 49.3219C12.0703 49.2333 10.6089 49.0673 9.14753 48.8237C7.68614 48.5801 6.24689 48.2591 4.82978 47.8605C3.41268 47.4398 2.07307 46.9195 0.810964 46.2995L0.744537 3.52062C1.9845 3.01135 3.30197 2.55743 4.69693 2.15887C6.09189 1.73817 7.509 1.39496 8.94825 1.12926C10.4096 0.841406 11.86 0.631055 13.2992 0.498201C14.7384 0.343205 16.1334 0.265707 17.4841 0.265707C19.0562 0.265707 20.6394 0.365347 22.2336 0.564628C23.85 0.763908 25.3999 1.09604 26.8835 1.56103C28.367 2.02602 29.7509 2.63493 31.0352 3.38777C32.3194 4.11846 33.4376 5.02629 34.3897 6.11126C35.364 7.19624 36.1168 8.45834 36.6482 9.89759C37.2018 11.3368 37.4786 12.9975 37.4786 14.8796C37.4786 16.1196 37.3014 17.282 36.9471 18.367C36.5929 19.452 36.0836 20.4262 35.4193 21.2898C34.7551 22.1533 33.9469 22.8951 32.9947 23.5151C32.0426 24.1129 30.9687 24.5558 29.773 24.8436C31.2123 25.22 32.5187 25.7736 33.6922 26.5043C34.8879 27.235 35.8954 28.1207 36.7146 29.1614C37.556 30.202 38.1982 31.3756 38.641 32.682C39.106 33.9884 39.3385 35.3833 39.3385 36.8669ZM22.4661 17.9352C22.4661 17.2931 22.3332 16.7506 22.0675 16.3078C21.8018 15.8428 21.4697 15.4664 21.0711 15.1785C20.6947 14.8907 20.274 14.6803 19.809 14.5475C19.3662 14.4146 18.9676 14.3482 18.6133 14.3482C18.1705 14.3482 17.7387 14.4146 17.318 14.5475C16.8973 14.6803 16.4877 14.8353 16.0891 15.0125L15.8898 22.3858C16.3991 22.3858 17.0302 22.3415 17.783 22.253C18.5358 22.1644 19.2555 21.9762 19.9419 21.6883C20.6504 21.3784 21.2483 20.9355 21.7354 20.3598C22.2225 19.762 22.4661 18.9538 22.4661 17.9352ZM17.7498 28.7628C17.1077 28.7628 16.4877 28.8292 15.8898 28.9621L15.757 36.5347C16.0891 36.6012 16.4102 36.6676 16.7202 36.734C17.0523 36.7783 17.3734 36.8004 17.6834 36.8004C18.1484 36.8004 18.6576 36.7562 19.2112 36.6676C19.7647 36.5569 20.2851 36.3576 20.7722 36.0697C21.2593 35.7598 21.6579 35.3501 21.9679 34.8409C22.3 34.3316 22.4661 33.6562 22.4661 32.8148C22.4661 31.9734 22.3 31.287 21.9679 30.7556C21.6579 30.2242 21.2704 29.8146 20.8054 29.5267C20.3404 29.2167 19.8312 29.0174 19.2776 28.9289C18.7241 28.8182 18.2148 28.7628 17.7498 28.7628Z" fill="#021E5C"/>
<path d="M77.5339 21.8544C77.5339 23.7808 77.4011 25.7072 77.1353 27.6335C73.349 27.8771 69.5848 28.2757 65.8428 28.8292C62.1007 29.3606 58.3587 29.8921 54.6167 30.4235C55.1924 32.0177 56.0891 33.2909 57.3069 34.243C58.5469 35.1951 60.0194 35.6712 61.7243 35.6712C62.61 35.6712 63.5732 35.5051 64.6139 35.173C65.6767 34.8409 66.7285 34.4312 67.7692 33.9441C68.8099 33.4348 69.8063 32.8923 70.7584 32.3166C71.7105 31.7409 72.5298 31.2206 73.2162 30.7556L71.6219 45.8345C70.7584 46.4988 69.8173 47.0634 68.7988 47.5284C67.8024 47.9934 66.7617 48.3698 65.6767 48.6576C64.5918 48.9455 63.4957 49.1558 62.3886 49.2887C61.2815 49.4215 60.1965 49.488 59.1337 49.488C56.9416 49.488 54.9377 49.189 53.1221 48.5912C51.3064 47.9934 49.6568 47.163 48.1733 46.1002C46.7119 45.0152 45.4276 43.742 44.3205 42.2807C43.2134 40.8193 42.2945 39.225 41.5638 37.4979C40.8331 35.7708 40.2795 33.9441 39.9031 32.0177C39.5267 30.0913 39.3385 28.1428 39.3385 26.1722C39.3385 24.1129 39.5267 22.0537 39.9031 19.9945C40.2795 17.9352 40.8442 15.9535 41.597 14.0493C42.372 12.145 43.3352 10.3847 44.4866 8.76834C45.6601 7.12981 47.0219 5.70163 48.5718 4.48381C50.1218 3.26598 51.871 2.31387 53.8195 1.62746C55.7902 0.941046 57.9601 0.597841 60.3294 0.597841C62.3 0.597841 64.0936 0.874619 65.7099 1.42818C67.3485 1.95959 68.7988 2.71243 70.0609 3.68669C71.3451 4.6388 72.4523 5.77913 73.3822 7.10767C74.3344 8.4362 75.1093 9.89759 75.7072 11.4918C76.3272 13.0639 76.7811 14.7357 77.0689 16.5071C77.3789 18.2563 77.5339 20.0387 77.5339 21.8544ZM64.2485 20.1273C64.2485 19.5073 64.1821 18.8763 64.0493 18.2342C63.9164 17.5699 63.695 16.972 63.385 16.4406C63.0971 15.9092 62.7097 15.4774 62.2225 15.1453C61.7354 14.791 61.1265 14.6139 60.3958 14.6139C59.5101 14.6139 58.7241 14.8575 58.0376 15.3446C57.3734 15.8096 56.7977 16.4074 56.3105 17.1381C55.8234 17.8467 55.4249 18.6216 55.1149 19.463C54.8049 20.3045 54.5724 21.0794 54.4174 21.788L64.2485 20.858V20.1273Z" fill="#021E5C"/>
<path d="M113.77 31.6856C113.77 34.7191 113.238 37.3429 112.175 39.5572C111.135 41.7492 109.696 43.5649 107.858 45.0042C106.042 46.4213 103.905 47.473 101.448 48.1594C99.0119 48.8237 96.388 49.1558 93.576 49.1558C92.491 49.1558 91.2953 49.0119 89.9889 48.724C88.7047 48.4362 87.3983 48.0819 86.0697 47.6612C84.7412 47.2184 83.457 46.7534 82.217 46.2663C80.9992 45.757 79.9142 45.2809 78.9621 44.8381L80.4235 31.8184C82.3056 32.9477 84.3869 33.8112 86.6676 34.4091C88.9704 34.9848 91.2289 35.2726 93.4431 35.2726C93.8638 35.2726 94.3731 35.2616 94.9709 35.2394C95.5688 35.1951 96.1334 35.0955 96.6648 34.9405C97.2184 34.7634 97.6834 34.5087 98.0598 34.1766C98.4362 33.8444 98.6244 33.3684 98.6244 32.7484C98.6244 32.3277 98.4916 31.9734 98.2259 31.6856C97.9601 31.3756 97.6169 31.132 97.1962 30.9549C96.7755 30.7556 96.2995 30.6117 95.7681 30.5231C95.2366 30.4124 94.7163 30.3349 94.207 30.2906C93.6978 30.2463 93.2217 30.2242 92.7789 30.2242C92.336 30.2242 91.9817 30.2242 91.716 30.2242C89.8118 30.2242 88.0736 29.9253 86.5015 29.3274C84.9516 28.7296 83.612 27.8882 82.4827 26.8032C81.3756 25.6961 80.512 24.3676 79.8921 22.8176C79.2721 21.2455 78.9621 19.5073 78.9621 17.6031C78.9621 14.9903 79.4824 12.6543 80.5231 10.5951C81.5859 8.5137 82.992 6.75339 84.7412 5.31414C86.5126 3.85275 88.5386 2.73457 90.8193 1.95959C93.0999 1.18461 95.4581 0.797121 97.8937 0.797121C98.9787 0.797121 100.097 0.841406 101.248 0.929975C102.4 0.996402 103.54 1.12926 104.669 1.32854C105.821 1.52782 106.939 1.78245 108.024 2.09244C109.109 2.40244 110.138 2.78993 111.113 3.25491L109.851 16.7396C108.345 16.2303 106.762 15.8096 105.101 15.4774C103.462 15.1232 101.857 14.946 100.285 14.946C99.9972 14.946 99.6208 14.9571 99.1558 14.9792C98.713 14.9792 98.2369 15.0125 97.7277 15.0789C97.2405 15.1232 96.7423 15.2007 96.233 15.3114C95.7238 15.4221 95.2699 15.5771 94.8713 15.7764C94.4727 15.9535 94.1517 16.1971 93.9081 16.5071C93.6645 16.817 93.5538 17.1824 93.576 17.6031C93.5981 18.0902 93.7753 18.4666 94.1074 18.7324C94.4617 18.9981 94.9045 19.1973 95.4359 19.3302C95.9895 19.4409 96.5873 19.4963 97.2294 19.4963C97.8937 19.4963 98.5469 19.4852 99.189 19.463C99.8312 19.4188 100.429 19.3856 100.983 19.3634C101.536 19.3191 101.99 19.3081 102.344 19.3302C104.116 19.4409 105.71 19.8173 107.127 20.4595C108.544 21.1016 109.74 21.9541 110.714 23.0169C111.71 24.0797 112.463 25.3529 112.973 26.8364C113.504 28.2978 113.77 29.9142 113.77 31.6856Z" fill="#021E5C"/>
<path d="M150.304 1.85995L149.972 15.9424L140.075 16.341L138.879 47.163L124.863 47.8937L123.601 17.0717L113.703 17.6031L114.102 1.92638L150.304 1.85995Z" fill="#021E5C"/>
<path d="M204.177 16.7396C204.177 18.8874 203.856 20.7916 203.213 22.4523C202.571 24.1129 201.686 25.5632 200.556 26.8032C199.449 28.0432 198.143 29.0949 196.637 29.9585C195.131 30.822 193.515 31.5306 191.788 32.0841C190.083 32.6156 188.312 33.0141 186.474 33.2798C184.636 33.5234 182.831 33.6562 181.06 33.6784V49.1558H165.583C165.583 44.0852 165.594 39.0368 165.616 34.0105C165.638 28.9842 165.671 23.9136 165.715 18.7988C165.76 16.0974 165.771 13.3961 165.749 10.6947C165.727 7.99336 165.782 5.26986 165.915 2.52422C168.749 1.68281 171.583 1.05176 174.417 0.631055C177.252 0.210351 180.174 0 183.186 0C184.891 0 186.596 0.143925 188.301 0.431774C190.006 0.697481 191.633 1.12926 193.183 1.7271C194.755 2.32494 196.205 3.07777 197.534 3.98561C198.885 4.8713 200.047 5.93413 201.021 7.17409C201.996 8.41406 202.759 9.83116 203.313 11.4254C203.889 12.9975 204.177 14.7689 204.177 16.7396ZM189.43 17.8688C189.43 16.4296 188.987 15.3114 188.101 14.5143C187.238 13.695 186.108 13.2854 184.714 13.2854C184.249 13.2854 183.761 13.3296 183.252 13.4182C182.765 13.4846 182.3 13.5732 181.857 13.6839L181.459 23.3822C181.769 23.4265 182.068 23.4487 182.355 23.4487C182.643 23.4487 182.942 23.4487 183.252 23.4487C184.049 23.4487 184.813 23.3158 185.544 23.0501C186.297 22.7844 186.961 22.408 187.537 21.9208C188.112 21.4116 188.566 20.8248 188.898 20.1605C189.253 19.4741 189.43 18.7102 189.43 17.8688Z" fill="#021E5C"/>
<path d="M244.929 16.6731C244.929 18.4002 244.774 19.9723 244.464 21.3894C244.177 22.7844 243.712 24.0686 243.069 25.2422C242.427 26.4157 241.597 27.5007 240.578 28.4971C239.56 29.4935 238.331 30.4456 236.892 31.3534L244.797 45.4359L229.851 48.3587L224.736 34.2098L220.617 34.3427L220.019 48.1594H205.738C205.848 43.111 205.948 38.0847 206.037 33.0805C206.147 28.0764 206.269 23.0501 206.402 18.0017C206.446 15.4553 206.49 12.9311 206.535 10.429C206.579 7.92693 206.668 5.40271 206.8 2.85635C208.35 2.28065 209.878 1.80459 211.384 1.42818C212.89 1.05176 214.395 0.763908 215.901 0.564628C217.429 0.343205 218.968 0.19928 220.518 0.132854C222.09 0.0442845 223.695 0 225.334 0C227.858 0 230.293 0.354276 232.64 1.06283C235.01 1.74924 237.102 2.78993 238.918 4.18489C240.733 5.57985 242.184 7.31802 243.269 9.39939C244.376 11.4808 244.929 13.9053 244.929 16.6731ZM230.05 17.736C230.05 16.806 229.917 15.9535 229.651 15.1785C229.408 14.4035 229.031 13.7393 228.522 13.1857C228.035 12.61 227.415 12.1672 226.662 11.8572C225.931 11.525 225.068 11.359 224.071 11.359C223.629 11.359 223.197 11.3922 222.776 11.4586C222.355 11.5029 221.946 11.5804 221.547 11.6911L221.016 24.0465H221.813C222.765 24.0465 223.728 23.9247 224.702 23.6812C225.699 23.4376 226.585 23.0612 227.36 22.5519C228.157 22.0426 228.799 21.3894 229.286 20.5923C229.795 19.7952 230.05 18.8431 230.05 17.736Z" fill="#021E5C"/>
<path d="M264.592 1.92638L262.267 47.163L248.251 47.8937L246.922 2.85635L264.592 1.92638Z" fill="#021E5C"/>
<path d="M299.001 3.32134L297.805 17.3374C297.163 17.1603 296.532 17.0385 295.912 16.972C295.292 16.9056 294.661 16.8724 294.019 16.8724C292.447 16.8724 290.941 17.0717 289.502 17.4702C288.085 17.8688 286.823 18.4777 285.715 19.297C284.63 20.1162 283.756 21.1569 283.092 22.419C282.449 23.659 282.128 25.1315 282.128 26.8364C282.128 28.0764 282.306 29.1614 282.66 30.0913C283.036 30.9992 283.557 31.7631 284.221 32.3831C284.907 32.9809 285.727 33.4348 286.679 33.7448C287.653 34.0548 288.727 34.2098 289.9 34.2098C290.72 34.2098 291.561 34.1323 292.425 33.9773C293.288 33.8002 294.152 33.5677 295.015 33.2798C295.879 32.992 296.709 32.6598 297.506 32.2834C298.303 31.907 299.045 31.5084 299.732 31.0877L299.2 46.698C298.337 47.1409 297.407 47.5394 296.41 47.8937C295.414 48.2258 294.384 48.5137 293.321 48.7573C292.281 49.023 291.229 49.2223 290.166 49.3551C289.125 49.488 288.129 49.5544 287.177 49.5544C284.033 49.5544 281.165 48.9676 278.575 47.7941C276.006 46.6205 273.792 45.0263 271.932 43.0113C270.094 40.9743 268.666 38.6161 267.647 35.9369C266.629 33.2577 266.12 30.4013 266.12 27.3678C266.12 23.7365 266.629 20.3487 267.647 17.2045C268.688 14.0603 270.205 11.3368 272.198 9.03404C274.213 6.70911 276.693 4.89344 279.637 3.58705C282.604 2.25851 286.003 1.59424 289.834 1.59424C291.362 1.59424 292.912 1.71603 294.484 1.95959C296.056 2.20316 297.562 2.65707 299.001 3.32134Z" fill="#021E5C"/>
<path d="M339.255 21.8544C339.255 23.7808 339.123 25.7072 338.857 27.6335C335.071 27.8771 331.306 28.2757 327.564 28.8292C323.822 29.3606 320.08 29.8921 316.338 30.4235C316.914 32.0177 317.811 33.2909 319.029 34.243C320.268 35.1951 321.741 35.6712 323.446 35.6712C324.332 35.6712 325.295 35.5051 326.335 35.173C327.398 34.8409 328.45 34.4312 329.491 33.9441C330.531 33.4348 331.528 32.8923 332.48 32.3166C333.432 31.7409 334.251 31.2206 334.938 30.7556L333.343 45.8345C332.48 46.4988 331.539 47.0634 330.52 47.5284C329.524 47.9934 328.483 48.3698 327.398 48.6576C326.313 48.9455 325.217 49.1558 324.11 49.2887C323.003 49.4215 321.918 49.488 320.855 49.488C318.663 49.488 316.659 49.189 314.844 48.5912C313.028 47.9934 311.378 47.163 309.895 46.1002C308.433 45.0152 307.149 43.742 306.042 42.2807C304.935 40.8193 304.016 39.225 303.285 37.4979C302.555 35.7708 302.001 33.9441 301.625 32.0177C301.248 30.0913 301.06 28.1428 301.06 26.1722C301.06 24.1129 301.248 22.0537 301.625 19.9945C302.001 17.9352 302.566 15.9535 303.319 14.0493C304.094 12.145 305.057 10.3847 306.208 8.76834C307.382 7.12981 308.743 5.70163 310.293 4.48381C311.843 3.26598 313.593 2.31387 315.541 1.62746C317.512 0.941046 319.682 0.597841 322.051 0.597841C324.022 0.597841 325.815 0.874619 327.431 1.42818C329.07 1.95959 330.52 2.71243 331.782 3.68669C333.067 4.6388 334.174 5.77913 335.104 7.10767C336.056 8.4362 336.831 9.89759 337.429 11.4918C338.049 13.0639 338.503 14.7357 338.79 16.5071C339.1 18.2563 339.255 20.0387 339.255 21.8544ZM325.97 20.1273C325.97 19.5073 325.904 18.8763 325.771 18.2342C325.638 17.5699 325.417 16.972 325.107 16.4406C324.819 15.9092 324.431 15.4774 323.944 15.1453C323.457 14.791 322.848 14.6139 322.117 14.6139C321.232 14.6139 320.446 14.8575 319.759 15.3446C319.095 15.8096 318.519 16.4074 318.032 17.1381C317.545 17.8467 317.146 18.6216 316.836 19.463C316.526 20.3045 316.294 21.0794 316.139 21.788L325.97 20.858V20.1273Z" fill="#021E5C"/>
<path d="M99.3773 80C97.9306 80 96.6316 79.6162 95.4802 78.8486C94.3288 78.1105 93.3546 77.092 92.5574 75.793C91.7603 74.494 91.1699 72.9883 90.786 71.2759C90.4318 69.5636 90.2989 67.7479 90.3875 65.8289C90.5056 63.7919 90.8156 61.6957 91.3175 59.5405C91.8194 57.3558 92.4984 55.2302 93.3546 53.1636C94.2107 51.097 95.1997 49.1337 96.3216 47.2737C97.473 45.4138 98.7277 43.79 100.086 42.4024C101.473 41.0149 102.95 39.9225 104.514 39.1254C106.079 38.2987 107.717 37.8854 109.43 37.8854C110.552 37.8854 111.496 38.1659 112.264 38.7268C113.032 39.2878 113.622 40.0258 114.035 40.941C114.478 41.8267 114.759 42.8305 114.877 43.9524C114.995 45.0743 114.98 46.1961 114.833 47.318C114.714 48.4104 114.464 49.4732 114.08 50.5065C113.725 51.5103 113.283 52.3369 112.751 52.9864C112.072 53.8426 111.452 54.3002 110.891 54.3593C110.36 54.3888 109.843 54.2264 109.341 53.8721C109.135 53.695 108.928 53.4883 108.721 53.2521C108.515 53.0455 108.293 52.7945 108.057 52.4993C107.821 52.1746 107.57 51.776 107.304 51.3036C107.865 51.097 108.382 50.7574 108.854 50.2851C109.327 49.7832 109.725 49.2223 110.05 48.6023C110.404 47.9823 110.67 47.3328 110.847 46.6537C111.054 45.9452 111.172 45.2514 111.201 44.5724C111.231 44.041 111.216 43.5243 111.157 43.0224C111.098 42.491 110.98 42.0334 110.803 41.6496C110.626 41.2363 110.375 40.9115 110.05 40.6753C109.755 40.4096 109.371 40.2768 108.898 40.2768C107.717 40.2768 106.566 40.7344 105.444 41.6496C104.322 42.5353 103.26 43.731 102.256 45.2366C101.281 46.7128 100.366 48.4104 99.5101 50.3294C98.6835 52.2484 97.9601 54.2264 97.3402 56.2635C96.7202 58.3006 96.2183 60.3081 95.8345 62.2862C95.4507 64.2642 95.2145 66.0651 95.1259 67.6889C95.0078 69.726 95.0816 71.3793 95.3474 72.6488C95.6131 73.9183 95.9673 74.9073 96.4102 75.6158C96.8826 76.3539 97.3844 76.841 97.9159 77.0772C98.4473 77.3429 98.9344 77.4758 99.3773 77.4758C100.204 77.4758 101.134 77.092 102.167 76.3244C103.2 75.5568 104.189 74.5087 105.134 73.1802C106.079 71.8812 106.92 70.3755 107.658 68.6632C108.426 66.9508 108.972 65.1499 109.297 63.2604C108.559 63.2604 107.806 63.2752 107.038 63.3047C106.3 63.3047 105.592 63.3195 104.913 63.349C104.234 63.3785 103.629 63.4228 103.097 63.4819C102.566 63.5114 102.152 63.5557 101.857 63.6147C101.651 63.5262 101.503 63.4228 101.414 63.3047C101.355 63.1866 101.296 63.0538 101.237 62.9062C101.178 62.7881 101.149 62.6405 101.149 62.4633C101.149 62.2862 101.178 62.1238 101.237 61.9762C101.296 61.8286 101.37 61.681 101.459 61.5333C101.547 61.3562 101.665 61.1791 101.813 61.0019C102.758 60.8248 103.688 60.6772 104.603 60.5591C105.518 60.441 106.463 60.3524 107.437 60.2934C108.441 60.2048 109.504 60.1458 110.626 60.1162C111.777 60.0572 113.061 60.0129 114.478 59.9834C115.069 59.9539 115.423 60.0277 115.541 60.2048C115.689 60.382 115.644 60.8248 115.408 61.5333C115.231 62.0943 114.995 62.5519 114.7 62.9062C114.434 63.2604 113.976 63.4081 113.327 63.349C113.12 63.349 112.958 63.3343 112.84 63.3047C112.574 65.0466 112.013 66.8918 111.157 68.8403C110.301 70.7888 109.253 72.5897 108.013 74.243C106.773 75.8963 105.4 77.2691 103.894 78.3615C102.418 79.4538 100.912 80 99.3773 80Z" fill="#BF0000"/>
<path d="M115.763 71.1431C115.556 71.4678 115.334 71.6745 115.098 71.7631C114.833 71.8812 114.611 71.8959 114.434 71.8074C114.227 71.7483 114.094 71.6007 114.035 71.3645C113.976 71.1283 114.035 70.8331 114.213 70.4788C114.301 70.3017 114.508 69.9031 114.833 69.2831C115.128 68.6632 115.497 67.9251 115.94 67.0689C116.353 66.1832 116.811 65.2385 117.312 64.2347C117.814 63.2014 118.287 62.2271 118.73 61.3119C119.202 60.3967 119.63 59.5848 120.014 58.8763C120.398 58.1382 120.678 57.6068 120.855 57.282C120.53 56.9868 120.309 56.7801 120.191 56.6621C120.073 56.5144 119.984 56.2192 119.925 55.7764C119.866 55.3926 119.955 54.8907 120.191 54.2707C120.427 53.6507 120.737 53.0602 121.121 52.4993C121.505 51.9088 121.933 51.407 122.405 50.9936C122.878 50.5803 123.335 50.3736 123.778 50.3736C124.605 50.3736 125.18 50.6394 125.505 51.1708C125.859 51.7022 126.066 52.2484 126.125 52.8093C126.184 53.1931 126.155 53.6802 126.037 54.2707C125.918 54.8611 125.697 55.3926 125.372 55.8649C125.461 55.924 125.579 55.9978 125.727 56.0864C125.874 56.1454 126.11 56.1749 126.435 56.1749C126.907 56.1749 127.232 56.1454 127.409 56.0864C127.616 56.0273 127.926 55.9978 128.339 55.9978C128.841 55.9978 129.255 56.1306 129.579 56.3963C129.904 56.6325 130.17 56.9425 130.376 57.3263C130.583 57.6806 130.731 58.0792 130.819 58.522C130.937 58.9353 131.011 59.3191 131.041 59.6734C131.129 60.4115 130.937 61.1791 130.465 61.9762C129.993 62.7733 129.417 63.6442 128.738 64.589C128.325 65.1794 127.911 65.8437 127.498 66.5818C127.085 67.3199 126.907 67.9841 126.967 68.5746C127.026 68.9584 127.129 69.2684 127.276 69.5046C127.424 69.7407 127.837 69.8588 128.516 69.8588C129.018 69.8588 129.565 69.6817 130.155 69.3274C130.775 68.9436 131.395 68.4713 132.015 67.9103C132.664 67.3199 133.299 66.6851 133.919 66.0061C134.539 65.2975 135.115 64.6185 135.646 63.969C136.178 63.29 136.621 62.6847 136.975 62.1533C137.359 61.6219 137.639 61.2381 137.816 61.0019C137.964 60.7658 138.156 60.6034 138.392 60.5148C138.628 60.4262 138.835 60.4262 139.012 60.5148C139.189 60.6034 139.292 60.7805 139.322 61.0462C139.381 61.3119 139.278 61.6662 139.012 62.109C138.835 62.4043 138.525 62.8766 138.082 63.5262C137.669 64.1757 137.152 64.899 136.532 65.6961C135.942 66.4932 135.277 67.3199 134.539 68.176C133.801 69.0027 133.019 69.7703 132.192 70.4788C131.395 71.1579 130.583 71.7188 129.756 72.1616C128.959 72.6045 128.192 72.8259 127.454 72.8259C126.686 72.8259 126.051 72.6783 125.549 72.3831C125.048 72.0878 124.634 71.7336 124.309 71.3202C124.014 70.8774 123.793 70.405 123.645 69.9031C123.527 69.3717 123.483 68.8846 123.512 68.4417C123.542 68.0875 123.63 67.7184 123.778 67.3346C123.955 66.9213 124.147 66.508 124.354 66.0947C124.59 65.6518 124.826 65.2237 125.062 64.8104C125.328 64.3676 125.564 63.9395 125.771 63.5262C126.273 62.67 126.671 61.9467 126.967 61.3562C127.291 60.7362 127.454 60.2196 127.454 59.8063C127.454 59.5405 127.395 59.3044 127.276 59.0977C127.158 58.891 126.967 58.7877 126.701 58.7877C126.524 58.7877 126.391 58.8025 126.302 58.832C126.243 58.832 126.169 58.832 126.081 58.832C126.022 58.832 125.918 58.8468 125.771 58.8763C125.653 58.8763 125.461 58.8763 125.195 58.8763C124.811 58.8763 124.487 58.8172 124.221 58.6991C123.955 58.581 123.704 58.4925 123.468 58.4334C123.35 58.6401 123.084 59.0829 122.671 59.762C122.258 60.441 121.77 61.2381 121.21 62.1533C120.678 63.0685 120.102 64.028 119.482 65.0318C118.892 66.0356 118.331 66.9803 117.8 67.866C117.268 68.7222 116.825 69.4603 116.471 70.0803C116.087 70.6707 115.851 71.025 115.763 71.1431Z" fill="#BF0000"/>
<path d="M148.976 64.3233C148.681 65.4452 148.282 66.4932 147.78 67.4675C147.278 68.4417 146.673 69.2831 145.965 69.9917C145.286 70.7002 144.503 71.2464 143.617 71.6302C142.761 72.0435 141.817 72.2502 140.783 72.2502C139.573 72.2502 138.613 71.9845 137.905 71.4531C137.226 70.9512 136.709 70.3164 136.355 69.5489C136.03 68.7812 135.838 67.9398 135.779 67.0246C135.691 66.1094 135.646 65.2533 135.646 64.4561C135.646 63.8952 135.72 63.2752 135.868 62.5962C135.986 61.9171 136.163 61.2234 136.399 60.5148C136.635 59.8063 136.931 59.0977 137.285 58.3891C137.669 57.6806 138.111 57.0311 138.613 56.4406C138.79 55.9387 139.056 55.4959 139.41 55.1121C139.794 54.7283 140.222 54.4183 140.695 54.1821C141.197 53.9164 141.728 53.7245 142.289 53.6064C142.85 53.4588 143.396 53.385 143.927 53.385C144.016 53.385 144.09 53.3998 144.149 53.4293C144.237 53.4588 144.326 53.4883 144.415 53.5178C144.798 53.5474 145.271 53.695 145.832 53.9607C146.422 54.2264 146.983 54.625 147.515 55.1564C148.075 55.6878 148.548 56.3668 148.932 57.1935C149.315 57.9906 149.507 58.9648 149.507 60.1162C149.507 60.3524 149.493 60.6477 149.463 61.0019C149.434 61.3267 149.404 61.6072 149.374 61.8433C150.054 61.5776 150.762 61.2529 151.5 60.8691C152.238 60.4853 152.947 60.0867 153.626 59.6734C154.334 59.2306 154.984 58.7877 155.574 58.3449C156.165 57.902 156.637 57.5035 156.991 57.1492C157.287 56.8835 157.538 56.7359 157.744 56.7063C157.951 56.6768 158.099 56.7359 158.187 56.8835C158.276 57.0311 158.29 57.2378 158.231 57.5035C158.172 57.7692 158.01 58.0644 157.744 58.3891C157.597 58.5663 157.213 58.9206 156.593 59.452C156.002 59.9834 155.294 60.5591 154.467 61.1791C153.641 61.7991 152.74 62.4043 151.766 62.9947C150.792 63.5852 149.862 64.028 148.976 64.3233ZM141.492 57.592C141.403 57.8577 141.359 58.1382 141.359 58.4334C141.359 58.9058 141.389 59.4077 141.448 59.9391C141.507 60.441 141.654 60.8986 141.89 61.3119C142.127 61.7253 142.496 62.0795 142.998 62.3748C143.529 62.6405 144.252 62.7733 145.167 62.7733C145.315 62.7733 145.463 62.7733 145.61 62.7733C145.758 62.7438 145.906 62.7143 146.053 62.6847C146.142 62.3009 146.216 61.9614 146.275 61.6662C146.363 61.3414 146.407 61.061 146.407 60.8248C146.466 60.2639 146.466 59.6882 146.407 59.0977C146.348 58.5072 146.23 57.9758 146.053 57.5035C145.906 57.0016 145.699 56.603 145.433 56.3078C145.197 55.983 144.902 55.8206 144.547 55.8206C143.987 55.8206 143.44 55.983 142.909 56.3078C142.407 56.603 141.935 57.0311 141.492 57.592ZM138.658 65.3861C138.658 65.9175 138.687 66.4489 138.746 66.9803C138.805 67.4822 138.923 67.9398 139.1 68.3532C139.278 68.737 139.514 69.0617 139.809 69.3274C140.104 69.5636 140.488 69.6817 140.96 69.6817C141.492 69.6817 141.979 69.5636 142.422 69.3274C142.865 69.0617 143.263 68.737 143.617 68.3532C143.972 67.9398 144.282 67.4822 144.547 66.9803C144.843 66.4489 145.094 65.9028 145.3 65.3418C145.094 65.3713 144.887 65.4009 144.68 65.4304C144.503 65.4304 144.297 65.4304 144.06 65.4304C142.938 65.4304 141.964 65.1056 141.138 64.4561C140.34 63.7771 139.72 62.9209 139.278 61.8876C139.1 62.5076 138.953 63.1128 138.835 63.7033C138.717 64.2938 138.658 64.8547 138.658 65.3861Z" fill="#BF0000"/>
<path d="M161.243 69.8588C162.158 69.8588 163.162 69.5046 164.254 68.796C165.376 68.0579 166.454 67.2018 167.487 66.2275C168.55 65.2533 169.509 64.2642 170.365 63.2604C171.251 62.2271 171.915 61.4005 172.358 60.7805C172.624 60.3967 172.875 60.1753 173.111 60.1162C173.347 60.0277 173.524 60.0572 173.642 60.2048C173.76 60.3524 173.805 60.5886 173.775 60.9134C173.746 61.2086 173.613 61.5481 173.377 61.9319C173.17 62.2862 172.816 62.8028 172.314 63.4819C171.841 64.1314 171.266 64.8547 170.587 65.6518C169.937 66.4194 169.184 67.2165 168.328 68.0432C167.502 68.8403 166.631 69.5784 165.715 70.2574C164.8 70.9069 163.856 71.4383 162.881 71.8516C161.907 72.2945 160.947 72.5159 160.003 72.5159C158.704 72.5159 157.611 72.265 156.726 71.7631C155.87 71.2907 155.176 70.6707 154.644 69.9031C154.142 69.1355 153.788 68.2941 153.582 67.3789C153.375 66.4342 153.272 65.5042 153.272 64.589C153.272 63.6738 153.478 62.5371 153.891 61.1791C154.305 59.821 154.91 58.522 155.707 57.282C156.534 56.0125 157.567 54.935 158.807 54.0493C160.047 53.1341 161.508 52.6764 163.191 52.6764C164.136 52.6764 164.933 53.0012 165.583 53.6507C166.262 54.3002 166.586 55.1859 166.557 56.3078C166.557 56.8392 166.468 57.3706 166.291 57.902C166.114 58.4039 165.878 58.8615 165.583 59.2748C165.287 59.6586 164.933 59.9686 164.52 60.2048C164.136 60.441 163.708 60.5591 163.236 60.5591C162.852 60.5591 162.557 60.4262 162.35 60.1605C162.173 59.8653 162.055 59.5405 161.996 59.1863C161.966 58.8025 161.966 58.4334 161.996 58.0792C162.055 57.7249 162.114 57.4887 162.173 57.3706C162.32 57.1639 162.483 57.0163 162.66 56.9278C162.837 56.8392 163.044 56.7359 163.28 56.6178C163.457 56.5292 163.59 56.3963 163.678 56.2192C163.796 56.0421 163.856 55.8502 163.856 55.6435C163.856 55.4368 163.796 55.2597 163.678 55.1121C163.56 54.9645 163.368 54.8907 163.103 54.8907C162.837 54.8907 162.35 55.1121 161.641 55.5549C160.962 55.9683 160.254 56.603 159.516 57.4592C158.807 58.2858 158.172 59.3339 157.611 60.6034C157.05 61.8729 156.755 63.349 156.726 65.0318C156.696 66.0061 156.829 66.8032 157.124 67.4232C157.419 68.0432 157.789 68.5303 158.231 68.8846C158.674 69.2389 159.161 69.4898 159.693 69.6374C160.224 69.785 160.741 69.8588 161.243 69.8588Z" fill="#BF0000"/>
<path d="M190.249 62.1533C189.363 63.4523 188.36 64.7218 187.238 65.9618C186.116 67.1722 184.92 68.2646 183.651 69.2389C182.411 70.1836 181.126 70.9512 179.798 71.5416C178.499 72.1321 177.229 72.4273 175.989 72.4273C175.34 72.4273 174.631 72.265 173.864 71.9402C173.126 71.645 172.447 71.1726 171.827 70.5231C171.207 69.8736 170.705 69.0322 170.321 67.9989C169.967 66.9656 169.863 65.7109 170.011 64.2347C170.129 63.0243 170.498 61.7548 171.118 60.4262C171.768 59.0682 172.55 57.8282 173.465 56.7063C174.41 55.5845 175.458 54.6545 176.609 53.9164C177.79 53.1783 178.971 52.8093 180.152 52.8093C181.274 52.8093 182.086 53.0898 182.588 53.6507C183.09 54.2116 183.311 54.9054 183.252 55.7321C183.164 56.6473 182.898 57.4887 182.455 58.2563C182.042 59.0239 181.54 59.7177 180.949 60.3377C180.359 60.9576 179.724 61.5186 179.045 62.0205C178.396 62.5224 177.776 62.98 177.185 63.3933C176.536 63.8361 175.916 64.2642 175.325 64.6776C174.735 65.0613 174.218 65.4156 173.775 65.7404C173.805 66.4785 173.938 67.0984 174.174 67.6003C174.41 68.1022 174.705 68.5155 175.06 68.8403C175.414 69.1355 175.812 69.3569 176.255 69.5046C176.728 69.6227 177.2 69.6817 177.672 69.6817C178.676 69.6817 179.724 69.3717 180.816 68.7517C181.909 68.1022 182.972 67.3346 184.005 66.4489C185.068 65.5337 186.042 64.589 186.928 63.6147C187.843 62.6405 188.596 61.7991 189.186 61.0905C189.393 60.8543 189.6 60.7215 189.806 60.6919C190.042 60.6329 190.22 60.6624 190.338 60.7805C190.485 60.8691 190.559 61.0462 190.559 61.3119C190.559 61.5481 190.456 61.8286 190.249 62.1533ZM178.912 55.3335C178.558 55.3335 178.13 55.5107 177.628 55.8649C177.156 56.2192 176.683 56.7359 176.211 57.4149C175.739 58.0644 175.296 58.8763 174.882 59.8505C174.469 60.7953 174.159 61.8876 173.952 63.1276C174.307 62.8619 174.69 62.5962 175.104 62.3305C175.517 62.0352 175.93 61.7253 176.344 61.4005C177.613 60.4262 178.499 59.5701 179.001 58.832C179.503 58.0939 179.783 57.4592 179.842 56.9278C179.901 56.3668 179.842 55.9683 179.665 55.7321C179.488 55.4664 179.237 55.3335 178.912 55.3335Z" fill="#BF0000"/>
<path d="M185.378 71.1431C185.171 71.4678 184.95 71.6745 184.714 71.7631C184.448 71.8812 184.226 71.8959 184.049 71.8074C183.843 71.7483 183.71 71.6007 183.651 71.3645C183.592 71.1283 183.651 70.8331 183.828 70.4788C183.916 70.3017 184.123 69.9031 184.448 69.2831C184.743 68.6632 185.112 67.9251 185.555 67.0689C185.968 66.1832 186.426 65.2385 186.928 64.2347C187.43 63.2014 187.902 62.2271 188.345 61.3119C188.817 60.3967 189.245 59.5848 189.629 58.8763C190.013 58.1382 190.293 57.6068 190.471 57.282C190.146 56.9868 189.924 56.7801 189.806 56.6621C189.688 56.5144 189.6 56.2192 189.541 55.7764C189.481 55.3926 189.57 54.8907 189.806 54.2707C190.042 53.6507 190.352 53.0602 190.736 52.4993C191.12 51.9088 191.548 51.407 192.02 50.9936C192.493 50.5803 192.95 50.3736 193.393 50.3736C194.22 50.3736 194.796 50.6394 195.12 51.1708C195.475 51.7022 195.681 52.2484 195.74 52.8093C195.799 53.1931 195.77 53.6802 195.652 54.2707C195.534 54.8611 195.312 55.3926 194.988 55.8649C195.076 55.924 195.194 55.9978 195.342 56.0864C195.489 56.1454 195.726 56.1749 196.05 56.1749C196.523 56.1749 196.847 56.1454 197.025 56.0864C197.231 56.0273 197.541 55.9978 197.955 55.9978C198.456 55.9978 198.87 56.1306 199.195 56.3963C199.519 56.6325 199.785 56.9425 199.992 57.3263C200.198 57.6806 200.346 58.0792 200.435 58.522C200.553 58.9353 200.626 59.3191 200.656 59.6734C200.745 60.4115 200.553 61.1791 200.08 61.9762C199.608 62.7733 199.032 63.6442 198.353 64.589C197.94 65.1794 197.527 65.8437 197.113 66.5818C196.7 67.3199 196.523 67.9841 196.582 68.5746C196.641 68.9584 196.744 69.2684 196.892 69.5046C197.039 69.7407 197.453 69.8588 198.132 69.8588C198.634 69.8588 199.18 69.6817 199.77 69.3274C200.39 68.9436 201.01 68.4713 201.63 67.9103C202.28 67.3199 202.914 66.6851 203.534 66.0061C204.154 65.2975 204.73 64.6185 205.262 63.969C205.793 63.29 206.236 62.6847 206.59 62.1533C206.974 61.6219 207.254 61.2381 207.431 61.0019C207.579 60.7658 207.771 60.6034 208.007 60.5148C208.243 60.4262 208.45 60.4262 208.627 60.5148C208.804 60.6034 208.908 60.7805 208.937 61.0462C208.996 61.3119 208.893 61.6662 208.627 62.109C208.45 62.4043 208.14 62.8766 207.697 63.5262C207.284 64.1757 206.767 64.899 206.147 65.6961C205.557 66.4932 204.893 67.3199 204.154 68.176C203.416 69.0027 202.634 69.7703 201.807 70.4788C201.01 71.1579 200.198 71.7188 199.372 72.1616C198.575 72.6045 197.807 72.8259 197.069 72.8259C196.301 72.8259 195.667 72.6783 195.165 72.3831C194.663 72.0878 194.249 71.7336 193.925 71.3202C193.629 70.8774 193.408 70.405 193.26 69.9031C193.142 69.3717 193.098 68.8846 193.128 68.4417C193.157 68.0875 193.246 67.7184 193.393 67.3346C193.57 66.9213 193.762 66.508 193.969 66.0947C194.205 65.6518 194.441 65.2237 194.678 64.8104C194.943 64.3676 195.179 63.9395 195.386 63.5262C195.888 62.67 196.287 61.9467 196.582 61.3562C196.907 60.7362 197.069 60.2196 197.069 59.8063C197.069 59.5405 197.01 59.3044 196.892 59.0977C196.774 58.891 196.582 58.7877 196.316 58.7877C196.139 58.7877 196.006 58.8025 195.918 58.832C195.858 58.832 195.785 58.832 195.696 58.832C195.637 58.832 195.534 58.8468 195.386 58.8763C195.268 58.8763 195.076 58.8763 194.81 58.8763C194.427 58.8763 194.102 58.8172 193.836 58.6991C193.57 58.581 193.319 58.4925 193.083 58.4334C192.965 58.6401 192.7 59.0829 192.286 59.762C191.873 60.441 191.386 61.2381 190.825 62.1533C190.293 63.0685 189.718 64.028 189.098 65.0318C188.507 66.0356 187.946 66.9803 187.415 67.866C186.883 68.7222 186.441 69.4603 186.086 70.0803C185.703 70.6707 185.466 71.025 185.378 71.1431Z" fill="#BF0000"/>
<path d="M215.226 45.2809C215.137 45.6057 214.96 45.9304 214.694 46.2552C214.458 46.5504 214.178 46.8014 213.853 47.008C213.558 47.1852 213.248 47.3033 212.923 47.3623C212.598 47.4213 212.332 47.3623 212.126 47.1852C211.506 46.7128 211.181 46.2109 211.151 45.6795C211.122 45.1186 211.255 44.6019 211.55 44.1295C211.845 43.6276 212.214 43.2143 212.657 42.8896C213.1 42.5353 213.484 42.3286 213.808 42.2696C214.133 42.2105 214.399 42.2843 214.606 42.491C214.842 42.6681 215.019 42.9191 215.137 43.2438C215.255 43.5391 215.314 43.8786 215.314 44.2624C215.344 44.6462 215.314 44.9857 215.226 45.2809ZM209.114 54.7135C209.262 54.5364 209.542 54.3888 209.956 54.2707C210.369 54.1526 210.797 54.064 211.24 54.005C211.683 53.9164 212.081 53.8721 212.436 53.8721C212.819 53.8426 213.041 53.8426 213.1 53.8721C213.129 53.9016 213.056 54.2116 212.878 54.8021C212.701 55.3926 212.48 56.0864 212.214 56.8835C211.949 57.6806 211.668 58.5072 211.373 59.3634C211.078 60.1901 210.856 60.8691 210.709 61.4005C210.561 61.9319 210.384 62.5371 210.177 63.2162C209.97 63.8657 209.779 64.5152 209.601 65.1647C209.454 65.7847 209.35 66.3751 209.291 66.9361C209.232 67.497 209.277 67.9251 209.424 68.2203C209.572 68.5746 209.734 68.8255 209.911 68.9732C210.089 69.0912 210.28 69.1503 210.487 69.1503C211.078 69.1503 211.816 68.8255 212.701 68.176C213.617 67.5265 214.532 66.7589 215.447 65.8732C216.392 64.958 217.263 64.0428 218.06 63.1276C218.857 62.1829 219.447 61.43 219.831 60.8691C220.067 60.5739 220.304 60.382 220.54 60.2934C220.805 60.2048 221.012 60.2196 221.16 60.3377C221.337 60.4558 221.425 60.6477 221.425 60.9134C221.455 61.1791 221.366 61.4891 221.16 61.8433C220.687 62.67 219.994 63.659 219.078 64.8104C218.163 65.9323 217.189 67.0246 216.156 68.0875C215.122 69.1208 214.104 70.0065 213.1 70.7445C212.126 71.4826 211.329 71.8664 210.709 71.8959C210.207 71.9255 209.705 71.8369 209.203 71.6302C208.73 71.4531 208.288 71.2021 207.874 70.8774C207.491 70.5231 207.166 70.1245 206.9 69.6817C206.634 69.2093 206.487 68.7222 206.457 68.2203C206.369 67.4822 206.369 66.4785 206.457 65.209C206.546 63.91 206.708 62.5962 206.944 61.2676C207.181 59.9096 207.476 58.6253 207.83 57.4149C208.214 56.2044 208.642 55.304 209.114 54.7135Z" fill="#BF0000"/>
<path d="M237.988 62.1533C237.102 63.4523 236.098 64.7218 234.976 65.9618C233.855 67.1722 232.659 68.2646 231.389 69.2389C230.149 70.1836 228.865 70.9512 227.537 71.5416C226.238 72.1321 224.968 72.4273 223.728 72.4273C223.079 72.4273 222.37 72.265 221.603 71.9402C220.864 71.645 220.185 71.1726 219.565 70.5231C218.945 69.8736 218.444 69.0322 218.06 67.9989C217.706 66.9656 217.602 65.7109 217.75 64.2347C217.868 63.0243 218.237 61.7548 218.857 60.4262C219.506 59.0682 220.289 57.8282 221.204 56.7063C222.149 55.5845 223.197 54.6545 224.348 53.9164C225.529 53.1783 226.71 52.8093 227.891 52.8093C229.013 52.8093 229.825 53.0898 230.327 53.6507C230.828 54.2116 231.05 54.9054 230.991 55.7321C230.902 56.6473 230.637 57.4887 230.194 58.2563C229.78 59.0239 229.279 59.7177 228.688 60.3377C228.098 60.9576 227.463 61.5186 226.784 62.0205C226.134 62.5224 225.514 62.98 224.924 63.3933C224.274 63.8361 223.654 64.2642 223.064 64.6776C222.473 65.0613 221.957 65.4156 221.514 65.7404C221.543 66.4785 221.676 67.0984 221.913 67.6003C222.149 68.1022 222.444 68.5155 222.798 68.8403C223.152 69.1355 223.551 69.3569 223.994 69.5046C224.466 69.6227 224.939 69.6817 225.411 69.6817C226.415 69.6817 227.463 69.3717 228.555 68.7517C229.648 68.1022 230.71 67.3346 231.744 66.4489C232.807 65.5337 233.781 64.589 234.666 63.6147C235.582 62.6405 236.335 61.7991 236.925 61.0905C237.132 60.8543 237.338 60.7215 237.545 60.6919C237.781 60.6329 237.958 60.6624 238.076 60.7805C238.224 60.8691 238.298 61.0462 238.298 61.3119C238.298 61.5481 238.194 61.8286 237.988 62.1533ZM226.651 55.3335C226.297 55.3335 225.869 55.5107 225.367 55.8649C224.894 56.2192 224.422 56.7359 223.95 57.4149C223.477 58.0644 223.034 58.8763 222.621 59.8505C222.208 60.7953 221.898 61.8876 221.691 63.1276C222.045 62.8619 222.429 62.5962 222.843 62.3305C223.256 62.0352 223.669 61.7253 224.082 61.4005C225.352 60.4262 226.238 59.5701 226.74 58.832C227.241 58.0939 227.522 57.4592 227.581 56.9278C227.64 56.3668 227.581 55.9683 227.404 55.7321C227.227 55.4664 226.976 55.3335 226.651 55.3335Z" fill="#BF0000"/>
<path d="M241.043 69.8588C241.221 69.9769 241.442 70.036 241.708 70.036C242.003 70.036 242.283 69.9769 242.549 69.8588C242.844 69.7407 243.11 69.5784 243.346 69.3717C243.612 69.165 243.804 68.8993 243.922 68.5746C244.04 68.2498 244.04 67.7922 243.922 67.2018C243.804 66.5818 243.612 65.9323 243.346 65.2533C243.11 64.5447 242.844 63.8361 242.549 63.1276C242.254 62.419 242.003 61.7695 241.796 61.1791C241.619 60.7362 241.472 60.3229 241.353 59.9391C241.235 59.6144 241.117 59.3044 240.999 59.0091C240.911 58.6844 240.837 58.463 240.778 58.3449C240.63 58.581 240.364 58.9648 239.981 59.4963C239.626 60.0277 239.228 60.5886 238.785 61.1791C238.372 61.74 237.973 62.2714 237.589 62.7733C237.205 63.2457 236.94 63.5704 236.792 63.7476C236.556 64.0133 236.32 64.1757 236.084 64.2347C235.877 64.2642 235.7 64.2199 235.552 64.1019C235.405 63.9542 235.316 63.7623 235.286 63.5262C235.286 63.2604 235.405 62.9505 235.641 62.5962C235.818 62.36 236.084 61.991 236.438 61.4891C236.792 60.9576 237.146 60.4262 237.501 59.8948C237.855 59.3339 238.18 58.8468 238.475 58.4334C238.77 57.9906 238.933 57.7249 238.962 57.6363C239.021 57.4001 238.933 57.0901 238.696 56.7063C238.49 56.3225 238.46 55.8797 238.608 55.3778C238.726 54.9645 238.992 54.4921 239.405 53.9607C239.818 53.3998 240.305 52.8979 240.866 52.455C241.427 52.0122 242.003 51.6874 242.593 51.4808C243.184 51.2446 243.715 51.2446 244.188 51.4808C244.571 51.7169 244.881 51.9827 245.118 52.2779C245.354 52.5436 245.442 52.8241 245.383 53.1193C245.324 53.2669 245.236 53.4588 245.118 53.695C245 53.9312 244.822 54.2264 244.586 54.5807C244.35 54.9054 244.011 55.3335 243.568 55.8649C243.656 56.544 243.774 57.1639 243.922 57.7249C244.099 58.2858 244.261 58.7729 244.409 59.1863C244.586 59.6882 244.778 60.1458 244.985 60.5591C245.25 61.0905 245.531 61.6367 245.826 62.1976C246.121 62.7586 246.387 63.3195 246.623 63.8804C246.859 64.4118 247.051 64.9137 247.199 65.3861C247.347 65.8585 247.391 66.257 247.332 66.5818C247.243 67.0837 246.978 67.6889 246.535 68.3975C246.121 69.106 245.59 69.7998 244.94 70.4788C244.32 71.1283 243.597 71.6893 242.771 72.1616C241.973 72.634 241.132 72.8702 240.246 72.8702C239.626 72.8702 239.021 72.6783 238.431 72.2945C237.87 71.9107 237.383 71.4678 236.969 70.966C236.585 70.4345 236.29 69.9179 236.084 69.416C235.906 68.9141 235.892 68.5303 236.039 68.2646C236.216 67.9103 236.379 67.6299 236.526 67.4232C236.674 67.2165 236.895 66.9803 237.191 66.7146C237.309 66.6261 237.456 66.5227 237.634 66.4046C237.781 66.3161 237.988 66.2275 238.254 66.1389C238.519 66.0504 238.829 65.947 239.184 65.8289C239.479 66.7442 239.744 67.4675 239.981 67.9989C240.217 68.5008 240.409 68.8993 240.556 69.1946C240.733 69.5193 240.896 69.7407 241.043 69.8588Z" fill="#BF0000"/>
</svg>
